<svg width="24" height="24" viewBox="0 0 80 86" fill="none" xmlns="http://www.w3.org/2000/svg">
  <!-- Octopus silhouette; VSCode masks activity-bar icons to a single color. -->
  <g fill="currentColor">
    <path d="M16 46c-3 0-5 2-5 6 0 5 1 9 3 12 1 2 4 1 4-1 0-3-1-6-1-9 1-3 2-8-1-8Z"/>
    <path d="M25 50c-3 0-4 3-4 7 0 4 0 8 1 11 1 2 4 2 4 0 0-3-1-7-1-10 0-3 2-8 0-8Z"/>
    <path d="M34 52c-2 0-3 3-3 7s0 8 1 11c0 2 3 2 3 0 0-3 0-7 0-10s1-8-1-8Z"/>
    <path d="M43 52c-2 0-1 5-1 8s0 7 0 10c0 2 3 2 3 0 1-3 1-7 1-11s1-7-3-7Z"/>
    <path d="M52 50c-2 0-1 5-1 8 0 3-1 7-1 10 0 2 3 2 4 0 1-3 1-7 1-11 0-4-1-7-3-7Z"/>
    <path d="M61 46c-3 0-2 5-1 8 0 3-1 6-1 9 0 2 3 3 4 1 2-3 3-7 3-12 0-4-2-6-5-6Z"/>
    <path d="M40 6C22 6 11 17 11 33c0 12 9 19 29 19s29-7 29-19C69 17 58 6 40 6Z"/>
  </g>
  <!-- Glasses cut-outs (rendered in the page background color for contrast) -->
  <g fill="#1e1e1e">
    <circle cx="29" cy="27" r="6.5"/>
    <circle cx="51" cy="27" r="6.5"/>
  </g>
</svg>
