<svg width="24" height="24" viewBox="0 0 24 24" fill="none" xmlns="http://www.w3.org/2000/svg">
  <path d="M12 2c-3.3 0-6 2.7-6 6 0 2.2 1.2 4.1 3 5.2V16c0 .6.4 1 1 1h4c.6 0 1-.4 1-1v-2.8c1.8-1.1 3-3 3-5.2 0-3.3-2.7-6-6-6Z" fill="currentColor"/>
  <circle cx="10" cy="8" r="1.1" fill="var(--vscode-editor-background, #1e1e1e)"/>
  <circle cx="14" cy="8" r="1.1" fill="var(--vscode-editor-background, #1e1e1e)"/>
  <path d="M8 18c-.6 1-1.4 1.8-2.5 2.3M11 18.5 10.5 21M13 18.5l.5 2.5M16 18c.6 1 1.4 1.8 2.5 2.3" stroke="currentColor" stroke-width="1.3" stroke-linecap="round"/>
</svg>
